{"title":"Frozen.2013.TS.x264.AC3-MiLLENiUM","uid":9334291,"size":915558688,"categoryP":"video","categoryS":"movies","magnet":"?xt=urn:btih:f165b9f028b092b2f44e128eb570db994b0fb6aa&amp;dn=Frozen.2013.TS.x264.AC3-MiLLENiUM&amp;tr=udp%3A%2F%2Ftracker.openbittorrent.com%3A80&amp;tr=udp%3A%2F%2Fopen.demonii.com%3A1337&amp;tr=udp%3A%2F%2Ftracker.coppersurfer.tk%3A6969&amp;tr=udp%3A%2F%2Fexodus.desync.com%3A6969","seeders":1,"leechers":0,"uploader":"Acesn8s","files":-1,"time":1386826404,"description":"Frozen.2013.TS.x264.AC3-MiLLENiUM                  \n\nGeneral\n\nSource...............: VOBS [THANKS]\n\nSample Included......: yes\n\nGeneral\nComplete name                            : Frozen 2013 TS x264 AC3-MiLLENiUM.mkv\nFormat                                   : Matroska\nFormat version                           : Version 2\nFile size                                : 853 MiB\nDuration                                 : 1h 32mn\nOverall bit rate mode                    : Variable\nOverall bit rate                         : 1 290 Kbps\nEncoded date                             : UTC 2013-12-12 03:08:42\nWriting application                      : mkvmerge v6.5.0 ('Isn't she lovely') built on Oct 20 2013 12:50:05\nWriting library                          : libebml v1.3.0 + libmatroska v1.4.1\n\nVideo\nID                                       : 1\nFormat                                   : AVC\nFormat/Info                              : Advanced Video Codec\nFormat profile                           : &lt;a class=&quot;__cf_email__&quot; href=&quot;/cdn-cgi/l/email-protection&quot; data-cfemail=&quot;c58daca2ad8589f1ebf4&quot;&gt;[email&amp;#160;protected]&lt;/a&gt;&lt;script data-cfhash='f9e31' type=&quot;text/javascript&quot;&gt;\n/* &lt;![CDATA[ */!function(){try{var t=&quot;currentScript&quot;in document?document.currentScript:function(){for(var t=document.getElementsByTagName(&quot;script&quot;),e=t.length;e--;)if(t[e].getAttribute(&quot;data-cfhash&quot;))return t[e]}();if(t&amp;&amp;t.previousSibling){var e,r,n,i,c=t.previousSibling,a=c.getAttribute(&quot;data-cfemail&quot;);if(a){for(e=&quot;&quot;,r=parseInt(a.substr(0,2),16),n=2;a.length-n;n+=2)i=parseInt(a.substr(n,2),16)^r,e+=String.fromCharCode(i);e=document.createTextNode(e),c.parentNode.replaceChild(e,c)}t.parentNode.removeChild(t);}}catch(u){}}()/* ]]&gt; */&lt;/script&gt;\nFormat settings, CABAC                   : Yes\nFormat settings, ReFrames                : 3 frames\nCodec ID                                 : V_MPEG4/ISO/AVC\nDuration                                 : 1h 32mn\nBit rate mode                            : Variable\nBit rate                                 : 1 072 Kbps\nMaximum bit rate                         : 40.0 Mbps\nWidth                                    : 720 pixels\nHeight                                   : 364 pixels\nDisplay aspect ratio                     : 1.978\nFrame rate mode                          : Constant\nFrame rate                               : 23.976 fps\nColor space                              : YUV\nChroma subsampling                       : 4:2:0\nBit depth                                : 8 bits\nScan type                                : Progressive\nBits/(Pixel*Frame)                       : 0.171\nStream size                              : 709 MiB (83%)\nWriting library                          : x264 core 140 r2377 1ca7bb9\n\nAudio\nID                                       : 2\nFormat                                   : AC-3\nFormat/Info                              : Audio Coding 3\nMode extension                           : CM (complete main)\nFormat settings, Endianness              : Big\nCodec ID                                 : A_AC3\nDuration                                 : 1h 32mn\nBit rate mode                            : Constant\nBit rate                                 : 192 Kbps\nChannel(s)                               : 2 channels\nChannel positions                        : Front: L R\nSampling rate                            : 48.0 KHz\nBit depth                                : 16 bits\nCompression mode                         : Lossy\nStream size                              : 127 MiB (15%)\nLanguage                                 : English\nDefault                                  : Yes\nForced                                   : No\n &lt;a href=&quot;\nhttp://www.imdb.com/title/tt2294629/&quot; rel=&quot;nofollow&quot; target=&quot;_NEW&quot;&gt;\nhttp://www.imdb.com/title/tt2294629/&lt;/a&gt;\n\nPlot\n\nFearless optimist Anna teams up with Kristoff in an epic journey, encountering Everest-like conditions, and a hilarious snowman named Olaf in a race to find Anna's sister Elsa, whose icy powers have trapped the kingdom in eternal winter.\n\nScreenshots\n &lt;a href=&quot;\nhttp://s30.postimg.org/uzmhnucdd/vlcsnap_2013_12_12_04h26m01s206.png&quot; rel=&quot;nofollow&quot; target=&quot;_NEW&quot;&gt;\nhttp://s30.postimg.org/uzmhnucdd/vlcsnap_2013_12_12_04h26m01s206.png&lt;/a&gt;\n &lt;a href=&quot;\nhttp://s30.postimg.org/nsksrz1gh/vlcsnap_2013_12_12_04h26m40s95.png&quot; rel=&quot;nofollow&quot; target=&quot;_NEW&quot;&gt;\nhttp://s30.postimg.org/nsksrz1gh/vlcsnap_2013_12_12_04h26m40s95.png&lt;/a&gt;\n &lt;a href=&quot;\nhttp://s30.postimg.org/pyf3mh4wx/vlcsnap_2013_12_12_04h27m43s227.png&quot; rel=&quot;nofollow&quot; target=&quot;_NEW&quot;&gt;\nhttp://s30.postimg.org/pyf3mh4wx/vlcsnap_2013_12_12_04h27m43s227.png&lt;/a&gt;\n &lt;a href=&quot;\nhttp://s30.postimg.org/ykid72gwx/vlcsnap_2013_12_12_04h27m57s115.png&quot; rel=&quot;nofollow&quot; target=&quot;_NEW&quot;&gt;\nhttp://s30.postimg.org/ykid72gwx/vlcsnap_2013_12_12_04h27m57s115.png&lt;/a&gt;\n &lt;a href=&quot;\nhttp://s30.postimg.org/vsz3ggie9/vlcsnap_2013_12_12_04h31m45s70.png&quot; rel=&quot;nofollow&quot; target=&quot;_NEW&quot;&gt;\nhttp://s30.postimg.org/vsz3ggie9/vlcsnap_2013_12_12_04h31m45s70.png&lt;/a&gt;","torrent":{"xt":"urn:btih:f165b9f028b092b2f44e128eb570db994b0fb6aa","amp;dn":"Frozen.2013.TS.x264.AC3-MiLLENiUM","amp;tr":["udp%3A%2F%2Ftracker.openbittorrent.com%3A80","udp%3A%2F%2Fopen.demonii.com%3A1337","udp%3A%2F%2Ftracker.coppersurfer.tk%3A6969","udp%3A%2F%2Fexodus.desync.com%3A6969"],"infoHash":"f165b9f028b092b2f44e128eb570db994b0fb6aa","infoHashBuffer":{"type":"Buffer","data":[241,101,185,240,40,176,146,178,244,78,18,142,181,112,219,153,75,15,182,170]},"announce":[],"urlList":[]}}